<svg aria-hidden="true" style="width:0;height:0;position:absolute;overflow:hidden" xmlns="http://www.w3.org/2000/svg"><defs><symbol id="icon-chocolate" viewBox="0 0 32 32"><path fill="#fcf1e0" style="fill:var(--color1,#fcf1e0)" d="M3.944 20.076 14.721 2.652l.64-.674 8.236 5.491.056 3.314 2.01 3.28-8.88 14.077-12.839-8.063z"/><path fill="none" stroke="#fd9222" style="stroke:var(--color2,#fd9222)" stroke-linejoin="round" stroke-linecap="round" d="M21.635 23.88 7.45 15.016m3.911-6.417 14.185 8.864M10.63 25.864l11.736-19.25m4.81 8.175c-3.04-1.899-4.234-3.384-2.278-6.592l-9.626-6.015-11.736 19.25 14.186 8.864 9.454-15.507z"/></symbol><symbol id="icon-arrow-down" viewBox="0 0 32 32"><path d="M16.946 17.867a1.334 1.334 0 0 1-1.894 0l-6.107-6.12a1.334 1.334 0 1 0-1.894 1.88l6.12 6.12a4.001 4.001 0 0 0 5.654 0l6.12-6.12a1.337 1.337 0 0 0-.434-2.172 1.328 1.328 0 0 0-1.46.292l-6.107 6.12z"/></symbol><symbol id="icon-chocolate-bar" viewBox="0 0 32 32"><path style="fill:var(--color3,#000)" d="m13.822 2.413 7.527 7.536.08-.08a.856.856 0 0 1 1.184-.013l.873.873c.305.305.315.77.083 1.094l-.004.007-.143.192 6.16 6.16c.55.55.55 1.43 0 1.98l-9.43 9.43c-.55.55-1.43.55-1.98 0l-4.447-4.447a.853.853 0 0 1-.612.317.842.842 0 0 1-.644-.246l-2.6-2.6a.856.856 0 0 1-.013-1.184l.006-.007.077-.076-7.527-7.527c-.55-.55-.55-1.43 0-1.98l9.43-9.43c.55-.55 1.43-.55 1.98 0v.001zm6.582 8.48-1.756-1.755a.59.59 0 0 0-.85 0l-3.58 3.58a.621.621 0 0 0-.179.43.602.602 0 0 0 .179.43l1.749 1.749.61-.61-1.565-1.565 3.21-3.22 1.569 1.574.613-.613zm-5.076 5.072-1.754-1.754a.59.59 0 0 0-.85 0l-3.59 3.59c-.24.23-.24.61 0 .85l1.752 1.752.616-.616-1.57-1.564 3.22-3.21 1.564 1.563.612-.611zM8.822 8.193l3.58 3.58c.24.24.62.24.85-.01l3.58-3.58a.57.57 0 0 0 .18-.42h.01c0-.15-.06-.31-.18-.43l-3.58-3.58a.602.602 0 0 0-.86 0l-3.58 3.59c-.24.23-.24.61 0 .85zm-5.07 5.07 3.58 3.58c.24.24.62.24.85 0l3.58-3.58a.578.578 0 0 0 .18-.43h.01c0-.16-.06-.31-.18-.43l-3.58-3.58a.59.59 0 0 0-.85 0l-3.59 3.59c-.24.23-.24.61 0 .85zm6.933 8.754 2.362 2.363 9.636-13.04-.655-.655-11.343 11.332z"/><path fill="#fd9222" style="fill:var(--color2,#fd9222)" d="m13.822 2.413 7.527 7.536.08-.08a.856.856 0 0 1 1.184-.013l.873.873c.305.305.315.77.083 1.094l-.004.007-.143.192 6.16 6.16c.55.55.55 1.43 0 1.98l-9.43 9.43c-.55.55-1.43.55-1.98 0l-4.447-4.447a.853.853 0 0 1-.612.317.842.842 0 0 1-.644-.246l-2.6-2.6a.856.856 0 0 1-.013-1.184l.006-.007.077-.076-7.527-7.527c-.55-.55-.55-1.43 0-1.98l9.43-9.43c.55-.55 1.43-.55 1.98 0v.001zm6.582 8.48-1.756-1.755a.59.59 0 0 0-.85 0l-3.58 3.58a.621.621 0 0 0-.179.43.602.602 0 0 0 .179.43l1.749 1.749.61-.61-1.565-1.565 3.21-3.22 1.569 1.574.613-.613zm-5.076 5.072-1.754-1.754a.59.59 0 0 0-.85 0l-3.59 3.59c-.24.23-.24.61 0 .85l1.752 1.752.616-.616-1.57-1.564 3.22-3.21 1.564 1.563.612-.611zM8.822 8.193l3.58 3.58c.24.24.62.24.85-.01l3.58-3.58a.57.57 0 0 0 .18-.42h.01c0-.15-.06-.31-.18-.43l-3.58-3.58a.602.602 0 0 0-.86 0l-3.58 3.59c-.24.23-.24.61 0 .85zm-5.07 5.07 3.58 3.58c.24.24.62.24.85 0l3.58-3.58a.578.578 0 0 0 .18-.43h.01c0-.16-.06-.31-.18-.43l-3.58-3.58a.59.59 0 0 0-.85 0l-3.59 3.59c-.24.23-.24.61 0 .85zm6.933 8.754 2.362 2.363 9.636-13.04-.655-.655-11.343 11.332z"/></symbol><symbol id="icon-flag" viewBox="0 0 32 32"><path fill="gold" style="fill:var(--color4,gold)" d="M31.832 4.558H.243v23.508h31.589V4.558z"/><path fill="#0057b7" style="fill:var(--color5,#0057b7)" d="M.243 4.558h31.589v11.754H.243V4.558z"/></symbol><symbol id="icon-money" viewBox="0 0 32 32"><path fill="#fd9222" style="fill:var(--color2,#fd9222)" d="M16 .762C7.619.762.762 7.619.762 16S7.619 31.238 16 31.238 31.238 24.381 31.238 16 24.381.762 16 .762zm0 27.429c-6.705 0-12.19-5.486-12.19-12.19S9.296 3.81 16 3.81c6.705 0 12.19 5.486 12.19 12.191s-5.486 12.19-12.191 12.19z"/><path fill="#fd9222" style="fill:var(--color2,#fd9222)" d="M17.981 14.476h-3.962c-.762 0-1.371-.61-1.371-1.371s.61-1.371 1.371-1.371h5.638c.914 0 1.524-.61 1.524-1.524s-.61-1.524-1.524-1.524h-2.133V7.315c0-.914-.61-1.524-1.524-1.524s-1.524.61-1.524 1.524v1.371h-.457c-2.438 0-4.419 1.981-4.419 4.419s1.981 4.419 4.419 4.419h3.809c.762 0 1.371.61 1.371 1.371s-.61 1.371-1.371 1.371H12.19c-.914 0-1.524.61-1.524 1.524s.61 1.524 1.524 1.524h2.286v1.371c0 .914.61 1.524 1.524 1.524s1.524-.61 1.524-1.524v-1.371h.457c2.438 0 4.419-1.981 4.419-4.419s-1.981-4.419-4.419-4.419z"/></symbol><symbol id="icon-instagram" viewBox="0 0 32 32"><path stroke-linejoin="round" stroke-linecap="round" d="M22.667 2.667H9.334a6.667 6.667 0 0 0-6.667 6.667v13.333a6.667 6.667 0 0 0 6.667 6.667h13.333a6.667 6.667 0 0 0 6.667-6.667V9.334a6.667 6.667 0 0 0-6.667-6.667z"/><path stroke-linejoin="round" stroke-linecap="round" d="M21.333 15.16a5.338 5.338 0 0 1-6.123 6.049 5.334 5.334 0 0 1-3.916-7.663 5.333 5.333 0 0 1 8.536-1.374 5.328 5.328 0 0 1 1.504 2.989zM23.333 8.667h.015"/></symbol><symbol id="icon-spoon" viewBox="0 0 32 32"><path fill="#fd9222" style="fill:var(--color2,#fd9222)" d="M15.451 14.106a5.154 5.154 0 0 1-1.177-3.282c0-4.324 5.181-8.642 10.362-8.642a5.183 5.183 0 0 1 5.181 5.182c0 5.182-4.317 10.364-8.646 10.364a5.15 5.15 0 0 1-3.281-1.177L5.132 29.312a1.73 1.73 0 0 1-2.445-2.445l12.764-12.761z"/></symbol><symbol id="icon-mastercard" viewBox="0 0 32 32"><path fill="#ed0006" style="fill:var(--color6,#ed0006)" d="M16 22.834a9.084 9.084 0 0 1-5.935 2.199c-5.054 0-9.15-4.121-9.15-9.204s4.097-9.204 9.15-9.204A9.08 9.08 0 0 1 16 8.824a9.084 9.084 0 0 1 5.935-2.199c5.054 0 9.15 4.121 9.15 9.204s-4.097 9.204-9.15 9.204A9.082 9.082 0 0 1 16 22.834z"/><path fill="#f9a000" style="fill:var(--color7,#f9a000)" d="M16 22.834c1.967-1.688 3.215-4.2 3.215-7.005S17.967 10.512 16 8.824a9.084 9.084 0 0 1 5.935-2.199c5.054 0 9.15 4.121 9.15 9.204s-4.097 9.204-9.15 9.204A9.08 9.08 0 0 1 16 22.834z"/><path fill="#ff5e00" style="fill:var(--color8,#ff5e00)" d="M16 22.834c1.967-1.688 3.215-4.2 3.215-7.005S17.967 10.512 16 8.824c-1.967 1.688-3.215 4.2-3.215 7.005s1.248 5.317 3.215 7.005z"/></symbol><symbol id="icon-menu" viewBox="0 0 32 32"><path stroke-linejoin="round" stroke-linecap="round" d="M4 16h24M4 8h24M4 24h24"/></symbol><symbol id="icon-twitter" viewBox="0 0 32 32"><path stroke-linejoin="round" stroke-linecap="round" d="M30.667 4a14.53 14.53 0 0 1-4.187 2.04 5.975 5.975 0 0 0-6.637-1.661A5.979 5.979 0 0 0 16 10.04v1.333c-2.343.061-4.665-.459-6.759-1.513S5.347 6.717 4 4.799c0 0-5.333 12.533 6.667 17.867a15.519 15.519 0 0 1-9.333 2.667c12 6.667 26.667 0 26.667-15.333a5.966 5.966 0 0 0-.107-1.107A10.288 10.288 0 0 0 30.667 4z"/></symbol><symbol id="icon-close" viewBox="0 0 32 32"><path fill="none" stroke-linejoin="round" stroke-linecap="round" stroke-width="2.286" d="M24 8 8 24M8 8l16 16"/></symbol></defs></svg>